<?xml version="1.0" encoding="UTF-8" standalone="no"?><!DOCTYPE svg PUBLIC "-//W3C//DTD SVG 1.1//EN" "http://www.w3.org/Graphics/SVG/1.1/DTD/svg11.dtd"><svg width="100%" height="100%" viewBox="0 0 2604 489" version="1.1" xmlns="http://www.w3.org/2000/svg" xmlns:xlink="http://www.w3.org/1999/xlink" xml:space="preserve" xmlns:serif="http://www.serif.com/" style="fill-rule:evenodd;clip-rule:evenodd;stroke-linejoin:round;stroke-miterlimit:1.41421;"><path d="M2603.77,39.058c0,-21.557 -17.501,-39.058 -39.058,-39.058l-2525.65,0c-21.557,0 -39.058,17.501 -39.058,39.058l0,410.105c0,21.557 17.501,39.058 39.058,39.058l2525.65,0c21.557,0 39.058,-17.501 39.058,-39.058l0,-410.105Z" style="fill:#005596;"/><path d="M286.01,198.373c0,-4.559 -3.702,-8.261 -8.261,-8.261l-121.163,0c-4.558,0 -8.26,3.702 -8.26,8.261l0,121.15c0,4.559 3.702,8.26 8.26,8.26l121.163,0c4.559,0 8.261,-3.701 8.261,-8.26l0,-121.15Z" style="fill:#00aeef;"/><path d="M458.381,198.289c0,-4.559 -3.701,-8.26 -8.26,-8.26l-121.163,0c-4.559,0 -8.26,3.701 -8.26,8.26l0,121.15c0,4.559 3.701,8.261 8.26,8.261l121.163,0c4.559,0 8.26,-3.702 8.26,-8.261l0,-121.15Z" style="fill:#00aeef;"/><path d="M627.666,128.496c-0.791,-4.49 -5.079,-7.492 -9.569,-6.7l-119.322,21.039c-4.49,0.792 -7.492,5.08 -6.7,9.569l21.037,119.31c0.792,4.49 5.08,7.492 9.569,6.701l119.322,-21.04c4.49,-0.792 7.492,-5.079 6.701,-9.569l-21.038,-119.31Z" style="fill:#00aeef;"/><path d="M626.541,204.382c0,0 -13.113,35.354 -41.779,43.863c-27.954,8.291 -64.279,-22.709 -64.279,-22.709l-5.496,2.004l-1.334,-5.12c0,0 6.692,-1.767 9.746,-4.675c4.467,-4.242 4.646,-8.342 4.646,-8.342l5.262,0.529l-0.574,2.588c0,0 13.474,14.854 35.12,15.225c38.229,0.67 49.313,-28.984 49.313,-28.984l-2.571,-3.296l4.296,-3.325c0,0 3.033,4.23 4.812,5.467c3.075,2.158 5.996,1.654 5.996,1.654l0.475,5.121l-3.633,0Z" style="fill:#fff;fill-rule:nonzero;"/><g transform="matrix(4.16667,0,0,4.16667,-149.999,-528.776)"><path d="M215.683,205.588l0,-3.386l29.389,-25.243l-28.456,0l0,-3.56l35.293,0l0,3.126l-29.519,25.503l30.149,0l0,3.56l-36.856,0Z" style="fill:#fff;fill-rule:nonzero;"/><path d="M282.188,191.805l0,-1.519c0,-1.332 -0.615,-2.435 -1.845,-3.31c-1.23,-0.876 -3.27,-1.313 -6.121,-1.313l-5.6,0c-1.577,0 -2.836,0.083 -3.777,0.249c-0.94,0.167 -1.693,0.467 -2.257,0.901c-0.564,0.434 -0.98,1.038 -1.248,1.812c-0.268,0.774 -0.445,1.834 -0.532,3.18l21.38,0Zm-25.2,4.84l0,-4.927c0,-2.575 0.514,-4.533 1.541,-5.871c1.028,-1.338 2.344,-2.221 3.951,-2.648c1.606,-0.427 3.48,-0.64 5.621,-0.64l6.121,0c2.474,0 4.569,0.267 6.284,0.803c1.714,0.535 3.06,1.53 4.037,2.984c0.977,1.454 1.465,3.469 1.465,6.045l0,2.518l-25.2,0l0,1.432c0,1.722 0.3,3.05 0.901,3.983c0.6,0.934 1.559,1.585 2.876,1.954c1.317,0.369 3.111,0.553 5.383,0.553l5.231,0c1.722,0 3.06,-0.105 4.015,-0.314c0.955,-0.21 1.675,-0.608 2.16,-1.194c0.485,-0.586 0.756,-1.444 0.814,-2.572l3.82,0l0,0.434c0,1.678 -0.445,3.013 -1.335,4.004c-0.89,0.992 -2.178,1.697 -3.863,2.117c-1.686,0.419 -3.759,0.629 -6.219,0.629l-6.946,0c-1.997,0 -3.765,-0.213 -5.307,-0.64c-1.541,-0.427 -2.818,-1.328 -3.831,-2.702c-1.012,-1.375 -1.519,-3.357 -1.519,-5.948Z" style="fill:#fff;fill-rule:nonzero;"/><path d="M292.541,205.588l0,-22.66l3.842,0l0,22.66l-3.842,0Zm0,-28l0,-4.189l3.842,0l0,4.189l-3.842,0Z" style="fill:#fff;fill-rule:nonzero;"/><path d="M306.15,198.794l0,-12.763l-4.97,0l0,-3.103l4.97,0l0,-5.383l3.821,0l0,5.383l15.171,0l0,3.103l-15.171,0l0,11.287c0,1.433 0.18,2.543 0.542,3.332c0.362,0.789 0.955,1.349 1.78,1.682c0.825,0.333 1.932,0.499 3.321,0.499l1.215,0c1.737,0 3.007,-0.155 3.81,-0.466c0.803,-0.311 1.345,-0.861 1.628,-1.65c0.282,-0.789 0.423,-2.022 0.423,-3.701l0,-1.693l3.104,0l0,2.496c0,1.375 -0.08,2.515 -0.239,3.419c-0.159,0.904 -0.521,1.711 -1.085,2.42c-0.565,0.709 -1.451,1.266 -2.659,1.671c-1.209,0.406 -2.782,0.608 -4.721,0.608l-2.084,0c-5.904,0 -8.856,-2.38 -8.856,-7.141Z" style="fill:#fff;fill-rule:nonzero;"/><path d="M354.466,205.588l0,-19.557l-4.949,0l0,-3.103l4.949,0l0,-2.019c0,-1.707 0.322,-3.125 0.966,-4.254c0.644,-1.129 1.523,-1.954 2.637,-2.475c1.115,-0.52 2.402,-0.781 3.864,-0.781l7.141,0l0,3.126l-6.837,0c-1.36,0 -2.359,0.329 -2.996,0.987c-0.636,0.659 -0.955,1.523 -0.955,2.594l0,2.822l10.788,0l0,3.103l-10.788,0l0,19.557l-3.82,0Z" style="fill:#fff;fill-rule:nonzero;"/><path d="M398.246,205.588l0,-3.907l-0.087,0c-0.651,1.65 -1.7,2.771 -3.147,3.364c-1.447,0.594 -3.452,0.89 -6.013,0.89l-5.73,0c-2.286,0 -4.128,-0.343 -5.524,-1.031c-1.396,-0.687 -2.395,-1.602 -2.995,-2.746c-0.601,-1.143 -0.901,-2.445 -0.901,-3.906l0,-15.324l3.82,0l0,14.39c0,1.245 0.199,2.261 0.597,3.05c0.398,0.788 1.201,1.396 2.409,1.823c1.209,0.427 2.992,0.64 5.351,0.64l0.976,0c2.258,0 4.106,-0.123 5.546,-0.369c1.44,-0.246 2.547,-0.629 3.321,-1.15c0.774,-0.521 1.32,-1.226 1.639,-2.116c0.318,-0.89 0.477,-2.022 0.477,-3.397l0,-12.871l3.82,0l0,22.66l-3.559,0Zm-16.995,-26.763l0,-4.97l3.841,0l0,4.97l-3.841,0Zm9.354,0l0,-4.97l3.821,0l0,4.97l-3.821,0Z" style="fill:#fff;fill-rule:nonzero;"/><path d="M409.315,205.588l0,-22.66l3.56,0l0,3.277l0.087,0c1.186,-2.431 3.502,-3.646 6.946,-3.646l3.603,0c3.516,0 5.979,0.604 7.39,1.812c1.411,1.208 2.116,3.231 2.116,6.067l0,2.713l-3.559,0l0,-0.977c0,-1.939 -0.192,-3.353 -0.575,-4.243c-0.384,-0.89 -1.125,-1.491 -2.225,-1.802c-1.1,-0.311 -2.822,-0.466 -5.166,-0.466l-2.344,0c-1.302,0 -2.409,0.249 -3.321,0.748c-0.912,0.5 -1.588,1.165 -2.03,1.997c-0.441,0.832 -0.662,1.755 -0.662,2.768l0,14.412l-3.82,0Z" style="fill:#fff;fill-rule:nonzero;"/><path d="M453.69,205.588l0,-3.386l29.389,-25.243l-28.455,0l0,-3.56l35.293,0l0,3.126l-29.52,25.503l30.149,0l0,3.56l-36.856,0Z" style="fill:#fff;fill-rule:nonzero;"/><path d="M519.436,205.588l0,-2.257l-0.087,0c-0.507,1.041 -1.274,1.736 -2.301,2.083c-1.027,0.348 -2.959,0.521 -5.795,0.521l-9.16,0c-1.852,0 -3.314,-0.26 -4.384,-0.781c-1.071,-0.521 -1.82,-1.277 -2.247,-2.268c-0.427,-0.992 -0.64,-2.24 -0.64,-3.745l0,-1.519c0,-1.244 0.224,-2.261 0.673,-3.05c0.448,-0.788 1.096,-1.378 1.942,-1.768c0.847,-0.391 1.892,-0.648 3.137,-0.771c1.244,-0.123 2.764,-0.185 4.558,-0.185l6.121,0c1.664,0 3.013,0.076 4.048,0.228c1.034,0.152 1.859,0.427 2.474,0.825c0.615,0.398 1.14,0.952 1.574,1.661l0.087,0l0,-4.276c0,-1.346 -0.29,-2.344 -0.869,-2.996c-0.578,-0.651 -1.457,-1.085 -2.637,-1.302c-1.179,-0.217 -2.825,-0.325 -4.938,-0.325l-5.6,0c-2.257,0 -3.776,0.249 -4.558,0.748c-0.781,0.5 -1.172,1.263 -1.172,2.29l0,0.803l-3.82,0l0,-1.128c0,-1.404 0.318,-2.529 0.955,-3.376c0.637,-0.846 1.65,-1.465 3.039,-1.855c1.389,-0.391 3.212,-0.586 5.47,-0.586l6.034,0c2.677,0 4.854,0.195 6.533,0.586c1.678,0.39 2.995,1.157 3.95,2.3c0.955,1.144 1.433,2.793 1.433,4.949l0,15.194l-3.82,0Zm0,-6.099l0,-1.02c0,-0.999 -0.301,-1.748 -0.901,-2.247c-0.601,-0.499 -1.494,-0.832 -2.681,-0.998c-1.186,-0.167 -2.865,-0.25 -5.035,-0.25l-5.861,0c-1.649,0 -2.93,0.098 -3.842,0.293c-0.911,0.195 -1.552,0.543 -1.921,1.042c-0.368,0.499 -0.553,1.233 -0.553,2.203l0,0.716c0,0.883 0.152,1.585 0.456,2.106c0.304,0.521 0.886,0.9 1.747,1.139c0.861,0.239 2.167,0.358 3.918,0.358l5.079,0c2.387,0 4.272,-0.083 5.654,-0.249c1.382,-0.167 2.384,-0.492 3.006,-0.977c0.623,-0.485 0.934,-1.19 0.934,-2.116Zm-16.583,-20.664l0,-4.97l3.842,0l0,4.97l-3.842,0Zm9.355,0l0,-4.97l3.82,0l0,4.97l-3.82,0Z" style="fill:#fff;fill-rule:nonzero;"/><path d="M530.028,205.588l0,-32.189l3.82,0l0,13.436l0.087,0c0.68,-1.664 1.74,-2.793 3.18,-3.386c1.439,-0.594 3.433,-0.89 5.979,-0.89l5.47,0c2.286,0 4.128,0.343 5.524,1.031c1.396,0.687 2.395,1.602 2.995,2.745c0.601,1.144 0.901,2.446 0.901,3.907l0,15.346l-3.82,0l0,-14.412c0,-1.245 -0.195,-2.258 -0.586,-3.039c-0.391,-0.781 -1.19,-1.389 -2.398,-1.823c-1.209,-0.434 -2.999,-0.651 -5.373,-0.651l-0.976,0c-2.258,0 -4.095,0.119 -5.513,0.358c-1.418,0.238 -2.522,0.622 -3.31,1.15c-0.789,0.528 -1.346,1.23 -1.672,2.105c-0.325,0.876 -0.488,2.015 -0.488,3.419l0,12.893l-3.82,0Z" style="fill:#fff;fill-rule:nonzero;"/><path d="M565.19,205.588l0,-22.66l3.56,0l0,3.907l0.087,0c0.477,-1.158 1.121,-2.044 1.931,-2.659c0.811,-0.615 1.798,-1.039 2.963,-1.27c1.165,-0.232 2.587,-0.347 4.265,-0.347l5.73,0c2.287,0 4.128,0.343 5.524,1.031c1.397,0.687 2.395,1.602 2.996,2.745c0.6,1.144 0.901,2.446 0.901,3.907l0,15.346l-3.821,0l0,-14.412c0,-1.245 -0.195,-2.258 -0.586,-3.039c-0.39,-0.781 -1.19,-1.389 -2.398,-1.823c-1.208,-0.434 -2.999,-0.651 -5.372,-0.651l-0.977,0c-2.257,0 -4.095,0.119 -5.513,0.358c-1.418,0.238 -2.521,0.622 -3.31,1.15c-0.789,0.528 -1.346,1.23 -1.671,2.105c-0.326,0.876 -0.489,2.015 -0.489,3.419l0,12.893l-3.82,0Z" style="fill:#fff;fill-rule:nonzero;"/><path d="M624.532,191.805l0,-1.519c0,-1.332 -0.615,-2.435 -1.845,-3.31c-1.23,-0.876 -3.27,-1.313 -6.121,-1.313l-5.599,0c-1.578,0 -2.837,0.083 -3.777,0.249c-0.941,0.167 -1.693,0.467 -2.258,0.901c-0.564,0.434 -0.98,1.038 -1.248,1.812c-0.267,0.774 -0.445,1.834 -0.531,3.18l21.379,0Zm-25.199,4.84l0,-4.927c0,-2.575 0.513,-4.533 1.541,-5.871c1.027,-1.338 2.344,-2.221 3.95,-2.648c1.606,-0.427 3.48,-0.64 5.622,-0.64l6.12,0c2.475,0 4.569,0.267 6.284,0.803c1.715,0.535 3.061,1.53 4.037,2.984c0.977,1.454 1.465,3.469 1.465,6.045l0,2.518l-25.199,0l0,1.432c0,1.722 0.3,3.05 0.9,3.983c0.601,0.934 1.56,1.585 2.876,1.954c1.317,0.369 3.111,0.553 5.383,0.553l5.231,0c1.722,0 3.061,-0.105 4.016,-0.314c0.955,-0.21 1.675,-0.608 2.159,-1.194c0.485,-0.586 0.756,-1.444 0.814,-2.572l3.82,0l0,0.434c0,1.678 -0.445,3.013 -1.334,4.004c-0.89,0.992 -2.178,1.697 -3.864,2.117c-1.686,0.419 -3.759,0.629 -6.219,0.629l-6.945,0c-1.997,0 -3.766,-0.213 -5.307,-0.64c-1.541,-0.427 -2.818,-1.328 -3.831,-2.702c-1.013,-1.375 -1.519,-3.357 -1.519,-5.948Z" style="fill:#fff;fill-rule:nonzero;"/></g></svg>