<?xml version="1.0" encoding="UTF-8" standalone="no"?><!DOCTYPE svg PUBLIC "-//W3C//DTD SVG 1.1//EN" "http://www.w3.org/Graphics/SVG/1.1/DTD/svg11.dtd"><svg width="100%" height="100%" viewBox="0 0 2320 208" version="1.1" xmlns="http://www.w3.org/2000/svg" xmlns:xlink="http://www.w3.org/1999/xlink" xml:space="preserve" xmlns:serif="http://www.serif.com/" style="fill-rule:evenodd;clip-rule:evenodd;stroke-linejoin:round;stroke-miterlimit:1.41421;"><g><g><path d="M137.683,76.704c0,-4.559 -3.701,-8.261 -8.26,-8.261l-121.163,0c-4.559,0 -8.26,3.702 -8.26,8.261l0,121.15c0,4.559 3.701,8.26 8.26,8.26l121.163,0c4.559,0 8.26,-3.701 8.26,-8.26l0,-121.15Z" style="fill:#00aeef;"/><path d="M310.055,76.62c0,-4.559 -3.701,-8.26 -8.26,-8.26l-121.163,0c-4.559,0 -8.26,3.701 -8.26,8.26l0,121.15c0,4.559 3.701,8.261 8.26,8.261l121.163,0c4.559,0 8.26,-3.702 8.26,-8.261l0,-121.15Z" style="fill:#00aeef;"/><path d="M479.34,6.827c-0.792,-4.49 -5.079,-7.492 -9.569,-6.7l-119.322,21.039c-4.49,0.792 -7.492,5.08 -6.701,9.569l21.038,119.31c0.792,4.49 5.079,7.492 9.569,6.701l119.322,-21.04c4.49,-0.792 7.492,-5.079 6.701,-9.569l-21.038,-119.31Z" style="fill:#00aeef;"/><path d="M478.215,82.713c0,0 -13.113,35.354 -41.78,43.863c-27.954,8.291 -64.279,-22.709 -64.279,-22.709l-5.496,2.004l-1.333,-5.12c0,0 6.692,-1.767 9.746,-4.675c4.467,-4.242 4.646,-8.342 4.646,-8.342l5.262,0.529l-0.575,2.588c0,0 13.475,14.854 35.121,15.225c38.229,0.67 49.313,-28.984 49.313,-28.984l-2.571,-3.296l4.296,-3.325c0,0 3.033,4.23 4.812,5.467c3.075,2.158 5.996,1.654 5.996,1.654l0.475,5.121l-3.633,0Z" style="fill:#fff;fill-rule:nonzero;"/></g><g transform="matrix(4.16667,0,0,4.16667,-298.325,-650.445)"><text x="213.816px" y="205.588px" style="font-family:'Eurostile-ExtendedTwo', 'Eurostile ExtendedTwo', sans-serif;font-size:44.452px;fill:#005596;">Zeit für</text><text x="451.824px" y="205.588px" style="font-family:'Eurostile-ExtendedTwo', 'Eurostile ExtendedTwo', sans-serif;font-size:44.452px;fill:#005596;">Zähne</text></g></g></svg>